<svg xmlns="http://www.w3.org/2000/svg" viewBox="0 0 100 100" fill="none" stroke="#60a5fa" stroke-width="5" stroke-linecap="round" stroke-linejoin="round">
  <path d="M 25 65 Q 37.5 50, 50 60 T 75 55 V 80 H 25 Z" fill="#60a5fa" fill-opacity="0.2" stroke="none" />
  <path d="M 25 72 Q 40 60, 55 68 T 75 62 V 80 H 25 Z" fill="#60a5fa" fill-opacity="0.15" stroke="none" />
  <path d="M 25 65 Q 37.5 50, 50 60 T 75 55" stroke-width="3" />
  <path d="M 44 20 V 14 C 44 9, 56 9, 56 14 V 20 Z" fill="#60a5fa" fill-opacity="0.15" />
  <path d="M 25 80 V 45 A 25 25 0 0 1 75 45 V 80" />
  <path d="M 33 45 A 17 17 0 0 1 42 30" stroke-width="4" stroke-opacity="0.5" />
  <path d="M 18 80 V 86 C 18 94, 30 96, 50 96 C 70 96, 82 94, 82 86 V 80 Z" fill="#60a5fa" fill-opacity="0.15" />
  <circle cx="58" cy="44" r="3.5" stroke-width="2.5" />
</svg>
